<?xml version="1.0" standalone="no"?>
<!DOCTYPE svg PUBLIC "-//W3C//DTD SVG 20010904//EN"
 "http://www.w3.org/TR/2001/REC-SVG-20010904/DTD/svg10.dtd">
<svg version="1.0" xmlns="http://www.w3.org/2000/svg"
 width="60.000000pt" height="59.000000pt" viewBox="0 0 60.000000 59.000000"
 preserveAspectRatio="xMidYMid meet">
<metadata>
Created by potrace 1.13, written by Peter Selinger 2001-2015
</metadata>
<g transform="translate(0.000000,59.000000) scale(0.100000,-0.100000)"
fill="#FFFFFF" stroke="none">
<path d="M190 534 c0 -9 -9 -29 -21 -46 -18 -24 -21 -43 -20 -114 0 -66 -3
-86 -14 -91 -8 -3 -15 -12 -15 -20 0 -8 -9 -26 -20 -40 -11 -14 -20 -37 -20
-51 0 -14 -8 -31 -17 -38 -29 -21 -5 -29 28 -10 26 16 37 16 76 7 38 -10 49
-9 69 4 17 11 35 13 64 9 22 -4 40 -2 40 3 0 5 -24 7 -52 6 -97 -5 -113 -4
-145 2 -24 5 -33 13 -33 27 0 18 35 76 55 90 5 4 10 44 10 90 0 52 5 92 14
107 l14 25 23 -28 c20 -22 24 -38 24 -91 0 -63 1 -65 36 -89 l37 -25 -29 -6
c-46 -10 -88 -27 -107 -43 -27 -23 -14 -24 34 -2 81 36 214 19 258 -33 16 -20
6 -36 -44 -67 -65 -40 -171 -46 -250 -14 -17 7 -18 6 -7 -8 36 -44 193 -49
274 -8 56 27 103 73 95 92 -6 17 -101 64 -147 73 -21 4 -54 24 -82 49 -45 41
-46 43 -46 99 1 46 -4 63 -26 91 -14 19 -26 42 -26 50 0 9 -7 16 -15 16 -8 0
-15 -7 -15 -16z"/>
</g>
</svg>
